<?xml version="1.0" encoding="UTF-8"?> <!-- Creator: CorelDRAW 2020 (64-Bit) --> <svg xmlns="http://www.w3.org/2000/svg" xmlns:xlink="http://www.w3.org/1999/xlink" xmlns:xodm="http://www.corel.com/coreldraw/odm/2003" xml:space="preserve" width="1905.86mm" height="556.519mm" shape-rendering="geometricPrecision" text-rendering="geometricPrecision" image-rendering="optimizeQuality" fill-rule="evenodd" clip-rule="evenodd" viewBox="0 0 197760.29 57746.91"> <g id="Слой_x0020_1"> <metadata id="CorelCorpID_0Corel-Layer"></metadata> <g id="_2717325281344"> <path fill="#7C2871" fill-rule="nonzero" d="M85010.07 6915.75c0,2145.31 -1697.09,3884.45 -3790.57,3884.45 -2093.45,0 -3790.54,-1739.14 -3790.54,-3884.45 0,-2145.31 1697.09,-3884.45 3790.54,-3884.45 2093.48,0 3790.57,1739.14 3790.57,3884.45z"></path> <path fill="#E22284" fill-rule="nonzero" d="M80260.06 32229.86c0,5623.99 -4418.51,10183.1 -9869,10183.1 -5450.53,0 -9869,-4559.11 -9869,-10183.1 0,-5623.99 4418.47,-10183.09 9869,-10183.09 5450.49,0 9869,4559.1 9869,10183.09z"></path> <path fill="#E22284" fill-rule="nonzero" d="M197456.74 7768.93c0,4290.65 -3370.96,7768.88 -7529.27,7768.88 -4158.31,0 -7529.3,-3478.23 -7529.3,-7768.88 0,-4290.66 3370.99,-7768.93 7529.3,-7768.93 4158.31,0 7529.27,3478.27 7529.27,7768.93z"></path> <path fill="#7C2871" fill-rule="nonzero" d="M29436.03 25565.6c0,8253.47 -6589.49,14944.22 -14717.99,14944.22 -8128.54,0 -14718.04,-6690.75 -14718.04,-14944.22 0,-8253.47 6589.49,-14944.22 14718.04,-14944.22 8128.5,0 14717.99,6690.75 14717.99,14944.22z"></path> <path fill="#902A82" fill-rule="nonzero" d="M24409.1 41252.95c0,4290.66 -3370.96,7768.93 -7529.27,7768.93 -4158.31,0 -7529.31,-3478.27 -7529.31,-7768.93 0,-4290.65 3371,-7768.92 7529.31,-7768.92 4158.31,0 7529.27,3478.27 7529.27,7768.92z"></path> <path fill="#B33C8D" fill-rule="nonzero" d="M71724.4 29444.39c0,8243.46 -6549.7,14926.1 -14629.19,14926.1 -8079.45,0 -14629.15,-6682.64 -14629.15,-14926.1 0,-8243.46 6549.7,-14926.11 14629.15,-14926.11 8079.49,0 14629.19,6682.65 14629.19,14926.11z"></path> <path fill="#7C2871" fill-rule="nonzero" d="M91743.25 29444.39c0,8243.46 -6549.7,14926.1 -14629.19,14926.1 -8079.45,0 -14629.15,-6682.64 -14629.15,-14926.1 0,-8243.46 6549.7,-14926.11 14629.15,-14926.11 8079.49,0 14629.19,6682.65 14629.19,14926.11z"></path> <path fill="#7C2871" fill-rule="nonzero" d="M85020.21 36972.86c0,8243.46 -6549.7,14926.1 -14629.19,14926.1 -8079.45,0 -14629.15,-6682.64 -14629.15,-14926.1 0,-8243.46 6549.7,-14926.1 14629.15,-14926.1 8079.49,0 14629.19,6682.64 14629.19,14926.1z"></path> <path fill="#902A82" fill-rule="nonzero" d="M65038.92 46945.29c0,4290.65 -3370.96,7768.92 -7529.27,7768.92 -4158.31,0 -7529.3,-3478.27 -7529.3,-7768.92 0,-4290.66 3370.99,-7768.93 7529.3,-7768.93 4158.31,0 7529.27,3478.27 7529.27,7768.93z"></path> <path fill="#E22284" fill-rule="nonzero" d="M81799.96 30351.25c0,5595.65 -4510.97,10131.81 -10075.57,10131.81 -5564.6,0 -10075.57,-4536.16 -10075.57,-10131.81 0,-5595.66 4510.97,-10131.81 10075.57,-10131.81 5564.6,0 10075.57,4536.15 10075.57,10131.81z"></path> <path fill="#E22284" fill-rule="nonzero" d="M68970.31 52819.86c0,2145.31 -1697.08,3884.45 -3790.56,3884.45 -2093.46,0 -3790.54,-1739.14 -3790.54,-3884.45 0,-2145.31 1697.08,-3884.45 3790.54,-3884.45 2093.48,0 3790.56,1739.14 3790.56,3884.45z"></path> <path fill="#B33C8D" fill-rule="nonzero" d="M163389.88 36919.24c0,8243.46 -6549.69,14926.11 -14629.18,14926.11 -8079.46,0 -14629.16,-6682.65 -14629.16,-14926.11 0,-8243.46 6549.7,-14926.09 14629.16,-14926.09 8079.49,0 14629.18,6682.63 14629.18,14926.09z"></path> <path fill="#B33C8D" fill-rule="nonzero" d="M147247.23 29444.39c0,8243.46 -6549.69,14926.1 -14629.18,14926.1 -8079.46,0 -14629.16,-6682.64 -14629.16,-14926.1 0,-8243.46 6549.7,-14926.11 14629.16,-14926.11 8079.49,0 14629.18,6682.65 14629.18,14926.11z"></path> <path fill="#B33C8D" fill-rule="nonzero" d="M133253.91 32752.49c0,12752.93 -10140.33,23091.26 -22649.09,23091.26 -12508.75,0 -22649.08,-10338.33 -22649.08,-23091.26 0,-12752.93 10140.33,-23091.26 22649.08,-23091.26 12508.76,0 22649.09,10338.33 22649.09,23091.26z"></path> <path fill="#E22284" fill-rule="nonzero" d="M98208.31 17430.16c0,4290.65 -3371,7768.89 -7529.31,7768.89 -4158.27,0 -7529.27,-3478.24 -7529.27,-7768.89 0,-4290.65 3371,-7768.9 7529.27,-7768.9 4158.31,0 7529.31,3478.25 7529.31,7768.9z"></path> <path fill="#7C2871" fill-rule="nonzero" d="M135938.93 27532.13c0,8243.46 -6549.7,14926.09 -14629.15,14926.09 -8079.49,0 -14629.19,-6682.63 -14629.19,-14926.09 0,-8243.46 6549.7,-14926.11 14629.19,-14926.11 8079.45,0 14629.15,6682.65 14629.15,14926.11z"></path> <path fill="#E22284" fill-rule="nonzero" d="M158721.69 19856.98c0,8243.46 -6549.7,14926.09 -14629.19,14926.09 -8079.45,0 -14629.15,-6682.63 -14629.15,-14926.09 0,-8243.46 6549.7,-14926.11 14629.15,-14926.11 8079.49,0 14629.19,6682.65 14629.19,14926.11z"></path> <path fill="#E22284" fill-rule="nonzero" d="M147676.62 36064.6c0,4290.66 -3370.96,7768.93 -7529.27,7768.93 -4158.31,0 -7529.3,-3478.27 -7529.3,-7768.93 0,-4290.65 3370.99,-7768.92 7529.3,-7768.92 4158.31,0 7529.27,3478.27 7529.27,7768.92z"></path> <path fill="#902A82" fill-rule="nonzero" d="M143673.52 49977.97c0,4290.66 -3370.96,7768.93 -7529.27,7768.93 -4158.31,0 -7529.31,-3478.27 -7529.31,-7768.93 0,-4290.65 3371,-7768.92 7529.31,-7768.92 4158.31,0 7529.27,3478.27 7529.27,7768.92z"></path> <path fill="#E22284" fill-rule="nonzero" d="M133253.91 45050.94c0,2145.31 -1697.08,3884.45 -3790.57,3884.45 -2093.45,0 -3790.53,-1739.14 -3790.53,-3884.45 0,-2145.31 1697.08,-3884.45 3790.53,-3884.45 2093.49,0 3790.57,1739.14 3790.57,3884.45z"></path> <path fill="#E22284" fill-rule="nonzero" d="M101921.71 36064.6c0,8243.46 -6549.7,14926.1 -14629.15,14926.1 -8079.49,0 -14629.19,-6682.64 -14629.19,-14926.1 0,-8243.46 6549.7,-14926.1 14629.19,-14926.1 8079.45,0 14629.15,6682.64 14629.15,14926.1z"></path> <path fill="#7C2871" fill-rule="nonzero" d="M181402.42 34166.85c0,8243.46 -6549.7,14926.1 -14629.16,14926.1 -8079.45,0 -14629.18,-6682.64 -14629.18,-14926.1 0,-8243.46 6549.73,-14926.1 14629.18,-14926.1 8079.46,0 14629.16,6682.64 14629.16,14926.1z"></path> <path fill="#E22284" fill-rule="nonzero" d="M197760.29 32356.25c0,8243.46 -6549.69,14926.1 -14629.18,14926.1 -8079.46,0 -14629.15,-6682.64 -14629.15,-14926.1 0,-8243.46 6549.69,-14926.1 14629.15,-14926.1 8079.49,0 14629.18,6682.64 14629.18,14926.1z"></path> <path fill="#B33C8D" fill-rule="nonzero" d="M181402.42 19856.98c0,8243.46 -6549.7,14926.09 -14629.16,14926.09 -8079.45,0 -14629.18,-6682.63 -14629.18,-14926.09 0,-8243.46 6549.73,-14926.11 14629.18,-14926.11 8079.46,0 14629.16,6682.65 14629.16,14926.11z"></path> <path fill="#902A82" fill-rule="nonzero" d="M162648.37 48935.4c0,2145.31 -1697.09,3884.45 -3790.54,3884.45 -2093.48,0 -3790.57,-1739.14 -3790.57,-3884.45 0,-2145.31 1697.09,-3884.45 3790.57,-3884.45 2093.45,0 3790.54,1739.14 3790.54,3884.45z"></path> <path fill="#E22284" fill-rule="nonzero" d="M165423.93 6915.75c0,2145.31 -1697.08,3884.45 -3790.57,3884.45 -2093.45,0 -3790.53,-1739.14 -3790.53,-3884.45 0,-2145.31 1697.08,-3884.45 3790.53,-3884.45 2093.49,0 3790.57,1739.14 3790.57,3884.45z"></path> <path fill="#902A82" fill-rule="nonzero" d="M46138.16 41842.02c0,8243.46 -6549.7,14926.1 -14629.19,14926.1 -8079.45,0 -14629.15,-6682.64 -14629.15,-14926.1 0,-8243.46 6549.7,-14926.1 14629.15,-14926.1 8079.49,0 14629.19,6682.64 14629.19,14926.1z"></path> <path fill="#E22284" fill-rule="nonzero" d="M54548.45 19765.54c0,8243.46 -6549.7,14926.1 -14629.19,14926.1 -8079.45,0 -14629.15,-6682.64 -14629.15,-14926.1 0,-8243.46 6549.7,-14926.11 14629.15,-14926.11 8079.49,0 14629.19,6682.65 14629.19,14926.11z"></path> <path fill="#E22284" fill-rule="nonzero" d="M55525.69 40509.83c0,4290.65 -3370.99,7768.88 -7529.27,7768.88 -4158.31,0 -7529.3,-3478.23 -7529.3,-7768.88 0,-4290.66 3370.99,-7768.93 7529.3,-7768.93 4158.28,0 7529.27,3478.27 7529.27,7768.93z"></path> <path fill="#E22284" fill-rule="nonzero" d="M24431.31 7768.93c0,4290.65 -3370.99,7768.88 -7529.27,7768.88 -4158.31,0 -7529.3,-3478.23 -7529.3,-7768.88 0,-4290.66 3370.99,-7768.93 7529.3,-7768.93 4158.28,0 7529.27,3478.27 7529.27,7768.93z"></path> <polygon fill="#FEFEFE" fill-rule="nonzero" points="14632.91,42265.1 9087.56,22016.59 12725.15,22016.59 16985.78,37568.34 21552.32,22015.12 24943.3,22016.59 29525.69,37651.2 33805.5,22020.46 37442.98,22015.12 31895.26,42261.43 27679,42257.27 23249.22,27135.91 18815.2,42260.93 "></polygon> <polygon fill="#FEFEFE" fill-rule="nonzero" points="39951.87,22027.12 43414.75,22027.12 43414.75,42251.91 39951.87,42251.91 "></polygon> <polygon fill="#FEFEFE" fill-rule="nonzero" points="50817.83,39079.58 59247.63,39079.58 59247.63,42251.9 47426.63,42251.9 47426.63,22027.2 50817.83,22027.2 "></polygon> <path fill="#FEFEFE" fill-rule="nonzero" d="M69898.42 39102.81c1958.12,0 3558.45,-653.09 4752.43,-1959.5 1241.59,-1306.31 1862.76,-2985.96 1862.76,-4968.79 0,-2029.43 -621.17,-3662.5 -1862.76,-4968.65 -1217.81,-1306.21 -2818.14,-1959.53 -4752.43,-1959.53l-4728.2 0 0 13856.47 4728.2 0zm0 -17052.36c2841.82,0 5206.12,979.74 7068.95,2916.13 1886.58,1935.94 2841.56,4338.98 2841.56,7184.7 0,2822.7 -954.98,5225.2 -2841.56,7184.86 -1862.83,1936.01 -4227.13,2915.99 -7068.95,2915.99l-8143.26 0 0 -20225.01 8143.26 0 0 23.33z"></path> <path fill="#FEFEFE" fill-rule="nonzero" d="M91868.98 39135.09c1575.91,0 2817.87,-1237.05 2817.87,-2824.14 0,-1587.17 -1241.96,-2824.01 -2817.87,-2824.01l-5468.84 0 0 5671.6 5468.84 0 0 -23.45zm-5468.84 -13980.4l0 5321.36 4823.91 0c1504.69,0 2650.88,-1166.97 2650.88,-2660.48 0,-1493.9 -1146.19,-2660.88 -2650.88,-2660.88l-4823.91 0zm11677.59 11319.76c0,1656.8 -596.9,3033.89 -1814.85,4130.93 -1217.83,1096.97 -2650.55,1657.3 -4417.81,1657.3l-8859.82 0 0 -20235.35 8214.9 0c1695.5,0 3128.58,559.99 4298.54,1610.15 1194.05,1073.95 1767.22,2404.09 1767.22,3990.98 0,1773.99 -716.19,3127.71 -2101.65,4131.43 1815.25,933.64 2913.46,2613.93 2913.46,4714.57z"></path> <polygon fill="#FEFEFE" fill-rule="nonzero" points="104693.16,39088.38 113863.25,39088.38 113863.25,42262.41 101301.93,42262.41 101301.93,22027.18 113719.87,22027.18 113719.87,25201.44 104693.16,25201.44 104693.16,30452.69 112979.81,30452.69 112979.81,33603.36 104693.16,33603.36 "></polygon> <path fill="#FEFEFE" fill-rule="nonzero" d="M120311.16 25154.68l0 6768.18 4871.54 0c1814.77,0 3247.59,-1493.53 3247.59,-3383.97 0,-1867.24 -1456.73,-3384.21 -3247.59,-3384.21l-4871.54 0zm8406.16 17107.62l-4394.17 -7375.13 -4011.99 0 0 7375.13 -3391.35 0 0 -20235.2 8286.53 0c1862.86,0 3438.96,630.23 4704.68,1913.76 1289.7,1237.14 1958.23,2777.47 1958.23,4598.02 0,2567.25 -1647.74,4924.56 -4107.44,5858.13l4704.48 7865.28 -3748.98 0z"></path> <path fill="#FEFEFE" fill-rule="nonzero" d="M138460.56 25145.76l0 6771.85 4871.43 0c1814.96,0 3247.85,-1494.48 3247.85,-3385.9 0,-1868.11 -1456.73,-3385.95 -3247.85,-3385.95l-4871.43 0zm8381.93 17117.03l-4369.93 -7379.42 -4012 0 0 7379.42 -3391.23 0 0 -20246.32 8286.49 0c1862.92,0 3438.9,630.73 4704.69,1915.01 1289.73,1237.74 1958.3,2778.8 1958.3,4600.23 0,2568.7 -1647.73,4927.35 -4107.43,5861.4l4704.32 7869.68 -3773.21 0z"></path> <polygon fill="#FEFEFE" fill-rule="nonzero" points="153099.38,22018.77 156490.62,22018.77 156490.62,42262.3 153099.38,42262.3 "></polygon> <polygon fill="#FEFEFE" fill-rule="nonzero" points="163893.68,39088.38 173064.02,39088.38 173064.02,42262.41 160502.44,42262.41 160502.44,22027.18 172920.53,22027.18 172920.53,25201.24 163893.68,25201.24 163893.68,30452.69 172180.47,30452.69 172180.47,33603.36 163893.68,33603.36 "></polygon> <path fill="#FEFEFE" fill-rule="nonzero" d="M175428.3 37656.59l2937.07 -1679.52c835.94,2285.92 2531.26,3405.81 5134.56,3405.81 2579.28,0 3844.75,-1073.16 3844.75,-2659.5 0,-839.85 -358.3,-1446.34 -1026.87,-1866.27 -668.61,-443.07 -1910.56,-933.07 -3677.53,-1446.22 -1982.54,-583.16 -2961.34,-956.13 -4346.57,-1842.68 -1337.39,-933.18 -2005.97,-2262.83 -2005.97,-4082.52 0,-1796 644.93,-3195.65 1958.34,-4245.42 1289.37,-1073.14 2865.58,-1586.2 4704.48,-1586.2 3319.45,0 5874.46,1679.42 7211.93,4455.31l-2865.79 1609.75c-859.54,-1866.28 -2316.23,-2822.71 -4346.14,-2822.71 -1982.29,0 -3247.75,979.79 -3247.75,2519.32 0,1492.94 1002.97,2192.94 4179.03,3149.17 788.05,256.72 1361.18,443.24 1719.34,583.39 382.31,116.57 883.6,326.69 1528.59,583.07 668.42,256.53 1193.82,559.83 1504.27,816.39 1098.44,840.05 2268.76,2216.12 2125.48,4152.4 0,1819.56 -668.78,3289.04 -2029.86,4362.3 -1337.36,1072.98 -3104.32,1586.12 -5301.74,1586.12 -4011.73,-23.36 -6925.31,-1889.59 -7999.61,-4992z"></path> </g> </g> </svg> 